<?xml version="1.0" encoding="UTF-8" standalone="no"?>
<!-- Created with Inkscape (http://www.inkscape.org/) -->

<svg
   xmlns:dc="http://purl.org/dc/elements/1.1/"
   xmlns:cc="http://creativecommons.org/ns#"
   xmlns:rdf="http://www.w3.org/1999/02/22-rdf-syntax-ns#"
   xmlns:svg="http://www.w3.org/2000/svg"
   xmlns="http://www.w3.org/2000/svg"
   version="1.1"
   width="61.51012"
   height="60.200977"
   id="svg3077">
  <metadata
     id="metadata3082">
    <rdf:RDF>
      <cc:Work
         rdf:about="">
        <dc:format>image/svg+xml</dc:format>
        <dc:type
           rdf:resource="http://purl.org/dc/dcmitype/StillImage" />
        <dc:title></dc:title>
        <dc:creator>
          <cc:Agent>
            <dc:title>Juerd</dc:title>
          </cc:Agent>
        </dc:creator>
        <cc:license
           rdf:resource="http://creativecommons.org/licenses/publicdomain/" />
        <dc:description></dc:description>
        <dc:contributor>
          <cc:Agent>
            <dc:title>Hammer derived from https://commons.wikimedia.org/wiki/File:Tools-spanner-hammer.svg (public domain)</dc:title>
          </cc:Agent>
        </dc:contributor>
      </cc:Work>
      <cc:License
         rdf:about="http://creativecommons.org/licenses/publicdomain/">
        <cc:permits
           rdf:resource="http://creativecommons.org/ns#Reproduction" />
        <cc:permits
           rdf:resource="http://creativecommons.org/ns#Distribution" />
        <cc:permits
           rdf:resource="http://creativecommons.org/ns#DerivativeWorks" />
      </cc:License>
    </rdf:RDF>
  </metadata>
  <g
     transform="translate(-328.39902,-497.24682)"
     id="layer1">
    <g
       transform="matrix(0.70710678,0.70710678,-0.70710678,0.70710678,480.41005,-102.33099)"
       id="g3986">
      <path
         d="m 378.26577,531.28194 c -0.051,1.02374 -2.61099,1.0085 -5.34399,0.978 -4.782,-0.0538 -4.22001,-0.37174 -10.197,-0.439 -5.977,-0.0673 -17.60801,0.17668 -17.60801,0.17668 -1.904,-0.0215 -4.43799,0.1269 -4.20299,-1.47351 -0.234,-1.59996 2.298,-1.45198 4.203,-1.47351 0,0 11.632,0.24394 17.608,0.17668 5.97699,-0.0668 5.41499,-0.38519 10.196,-0.439 2.733,-0.0305 5.293,-0.0457 5.344,0.978 0,0 0.019,-0.0744 0.019,0.75783 0,0.83227 -0.018,0.75783 -0.018,0.75783 z"
         id="path3930"
         style="fill:#000000;stroke:#000000;stroke-width:0.66964155" />
      <path
         d="m 342.14618,514.83652 -0.15593,0.23357 c -3.025,1.47486 -5.21802,9.47913 -1.46918,11.02596 0.69939,0.13468 1.3782,0.9251 1.48725,1.73433 l -0.0819,4.51529 c -0.0797,1.27655 -0.66929,1.95746 -1.43974,2.38714 -1.49029,0.82912 -1.01863,2.61882 -0.89907,4.14781 l 0.62372,4.2e-4 c 0.93501,0.0155 1.67448,0.85829 1.66297,1.90075 -0.0101,1.04244 -0.7699,1.87155 -1.7006,1.86309 l -4.15493,-0.0412 c -0.935,-0.0141 -1.67449,-0.85829 -1.65802,-1.90009 0.008,-0.94271 0.63548,-1.67989 1.44873,-1.80879 -0.14261,-3.02648 -1.1365,-2.52865 -1.29758,-6.49119 l -0.002,-7.12377 c 0.10056,-5.02324 3.43252,-8.28126 7.63677,-10.44332 z"
         id="use3311"
         style="fill:#000000;stroke:#000000;stroke-width:1" />
      <path
         d="m 352.29069,529.04004 a 11.490485,5.7452426 0 1 1 -22.98097,0 11.490485,5.7452426 0 1 1 22.98097,0 z"
         transform="matrix(-0.79120879,0,0,1,653.70643,1.4840722)"
         id="path3974"
         style="fill:#000000;fill-opacity:1;stroke:#000000;stroke-width:1;stroke-miterlimit:4;stroke-opacity:1;stroke-dasharray:none;stroke-dashoffset:0" />
    </g>
  </g>
</svg>
